<svg class="svg-icon" style="width: 1em; height: 1em;vertical-align: middle;fill: currentColor;overflow: hidden;" viewBox="0 0 1024 1024" version="1.1" xmlns="http://www.w3.org/2000/svg"><path d="M704 112h-2c-79.4 0-149.6 42-190 104-40.4-62-110.6-104-190-104h-2c-123.8 1.2-224 101.8-224 226 0 74 32.4 179 95.6 265.4C312 768 512 912 512 912s200-144 320.4-308.6C895.6 517 928 412 928 338c0-124.2-100.2-224.8-224-226z m83.2 458.4C702 687 572.2 794.6 512 841.6c-60.2-47-190-154.8-275.2-271.4C178.2 490.2 152 396 152 338c0-45.2 17.6-87.6 49.2-119.6 31.8-32 74-49.8 119.2-50.2h1.8c28.6 0 57 7.4 82.2 21.6 24.4 13.8 45.6 33.4 60.8 57 10.4 15.8 28 25.4 47 25.4s36.6-9.6 47-25.4c15.4-23.6 36.4-43.2 60.8-57 25.2-14.2 53.6-21.6 82.2-21.6h1.8c45 0.4 87.4 18.2 119.2 50.2 31.8 32 49.2 74.6 49.2 119.6-0.4 58-26.6 152.2-85.2 232.4z"  /></svg>